<svg width="400" height="400" viewBox="0 0 400 400" fill="none" xmlns="http://www.w3.org/2000/svg">
  <defs>
    <linearGradient id="grad1" x1="0%" y1="0%" x2="100%" y2="100%">
      <stop offset="0%" stop-color="#2dd4bf" />
      <stop offset="100%" stop-color="#0f766e" />
    </linearGradient>
    <radialGradient id="grad2" cx="50%" cy="50%" r="50%" fx="50%" fy="50%">
      <stop offset="0%" stop-color="#ccfbf1" stop-opacity="0.3" />
      <stop offset="100%" stop-color="#2dd4bf" stop-opacity="0" />
    </radialGradient>
    <filter id="blur" x="-20%" y="-20%" width="140%" height="140%">
      <feGaussianBlur in="SourceGraphic" stdDeviation="10" />
    </filter>
  </defs>
  <rect width="400" height="400" fill="#f0fdfa" />
  <circle cx="200" cy="200" r="120" fill="url(#grad1)" />
  <circle cx="200" cy="180" r="100" fill="url(#grad2)" filter="url(#blur)" />
  <!-- Abstract "Head" -->
  <path d="M200 140 C 230 140, 250 170, 250 200 C 250 240, 230 260, 200 260 C 170 260, 150 240, 150 200 C 150 170, 170 140, 200 140 Z" fill="#ffffff" fill-opacity="0.9" />
  <!-- Abstract "Shoulders" -->
  <path d="M120 320 Q 200 260 280 320 L 280 400 L 120 400 Z" fill="#115e59" fill-opacity="0.8" />
  <!-- Decorative Elements -->
  <circle cx="280" cy="120" r="20" fill="#5eead4" fill-opacity="0.6" />
  <circle cx="100" cy="250" r="15" fill="#99f6e4" fill-opacity="0.5" />
</svg>
